<?xml version="1.0" standalone="no"?> <!DOCTYPE svg PUBLIC "-//W3C//DTD SVG 1.0//EN" "http://www.w3.org/TR/2001/REC-SVG-20010904/DTD/svg10.dtd" > <svg xmlns="http://www.w3.org/2000/svg" width="100%" height="100%">
<defs >
<font id="roboto-bold" horiz-adv-x="1081" ><font-face
    font-family="Roboto"
    units-per-em="2048"
    panose-1="0 0 0 0 0 0 0 0 0 0"
    ascent="1900"
    descent="-500"
    alphabetic="0" />
<missing-glyph horiz-adv-x="748" d="M68 0V1365H612V0H68ZM136 68H544V1297H136V68Z" />
<glyph unicode=" " glyph-name="space" horiz-adv-x="510" />
<glyph unicode="!" glyph-name="exclam" horiz-adv-x="557" d="M426 502H134V1456H426V502ZM426 0H134V256H426V0Z" />
<glyph unicode="&quot;" glyph-name="quotedbl" horiz-adv-x="832" d="M372 1181L270 932H141V1456H372V1181ZM713 1181L611 932H483V1456H713V1181Z" />
<glyph unicode="#" glyph-name="numbersign" horiz-adv-x="1219" d="M650 410H458L387 0H203L275 410H48V579H304L355 869H123V1040H385L458 1456H641L568 1040H760L834 1456H1017L944 1040H1164V869H914L863 579H1088V410H834L762 0H578L650 410ZM488 579H679L730
869H538L488 579Z" />
<glyph unicode="$" glyph-name="dollar" horiz-adv-x="1216" d="M816 383Q816 465 769 514T602 610Q376 686 267 787T158 1071Q158 1240 267 1347T563 1474V1688H722V1471Q902 1446 1004 1331T1103 1030L1101 1025H816Q816 1134 767 1192T628 1251Q534 1251 492
1202T450 1070Q450 993 494 947T665 848Q887 776 997 672T1107 385Q1107 211 999 107T702 -17V-214H543V-17Q351 0 228 110T108 435L111 441H395Q395 313 457 259T620 204Q718 204 767 252T816 383Z" />
<glyph unicode="%" glyph-name="percent" horiz-adv-x="1513" d="M95 1176Q95 1305 178 1391T411 1477Q562 1477 645 1392T728 1176V1099Q728 970 645 885T413 800Q263 800 179 885T95 1099V1176ZM289 1099Q289 1041 321 1002T413 962Q471 962 502 1001T534 1099V1176Q534
1234 502 1274T411 1315Q352 1315 321 1275T289 1176V1099ZM791 357Q791 485 875 571T1108 657Q1258 657 1341 572T1425 357V280Q1425 150 1342 65T1110 -20Q960 -20 876 65T791 280V357ZM985 280Q985 223 1019 183T1110 142Q1175 142 1203 179T1231 280V357Q1231
414 1199 454T1108 495Q1048 495 1017 455T985 357V280ZM461 109L319 184L1030 1322L1172 1247L461 109Z" />
<glyph unicode="&amp;" glyph-name="ampersand" horiz-adv-x="1346" d="M319 781Q253 871 221 945T189 1097Q189 1279 295 1378T586 1477Q745 1477 844 1379T944 1140Q944 1036 902 960T776 819L674 747L944 432Q980 491 1000 561T1020 709H1253Q1253 567 1218
449T1107 240L1308 5L1306 0H982L905 89Q820 34 730 7T537 -21Q319 -21 190 93T61 392Q61 513 124 598T319 781ZM552 203Q605 203 658 216T760 257L465 599L456 592Q397 544 375 498T353 407Q353 318 408 261T552 203ZM450 1100Q450 1058 470 1014T531 918L607
967Q663 1003 682 1041T702 1124Q702 1175 669 1213T578 1252Q518 1252 484 1208T450 1100Z" />
<glyph unicode="&apos;" glyph-name="quotesingle" horiz-adv-x="442" d="M352 1187L250 904H91V1456H352V1187Z" />
<glyph unicode="(" glyph-name="parenleft" horiz-adv-x="711" d="M124 592Q124 984 276 1257T620 1612H626L679 1466Q548 1368 459 1150T370 594V568Q370 229 459 12T679 -307L626 -450H620Q428 -369 276 -96T124 570V592Z" />
<glyph unicode=")" glyph-name="parenright" horiz-adv-x="713" d="M602 570Q602 187 444 -91T91 -450H85L31 -307Q160 -209 250 10T340 568V594Q340 930 249 1150T31 1470L85 1612H91Q285 1532 443 1253T602 592V570Z" />
<glyph unicode="*" glyph-name="asterisk" horiz-adv-x="857" d="M278 665L49 741L103 911L343 832L345 1081H521L528 824L758 902L811 731L578 652L716 450L572 344L423 552L278 353L133 455L278 665Z" />
<glyph unicode="+" glyph-name="plus" horiz-adv-x="1117" d="M694 812H1054V560H694V146H418V560H56V812H418V1206H694V812Z" />
<glyph unicode="," glyph-name="comma" horiz-adv-x="528" d="M417 13L258 -302H63L133 22V250H417V13Z" />
<glyph unicode="-" glyph-name="hyphen" horiz-adv-x="892" d="M735 510H146V735H735V510Z" />
<glyph unicode="." glyph-name="period" horiz-adv-x="596" d="M436 0H144V256H436V0Z" />
<glyph unicode="/" glyph-name="slash" horiz-adv-x="825" d="M270 -125H-14L520 1456H804L270 -125Z" />
<glyph unicode="0" glyph-name="zero" horiz-adv-x="1175" d="M1080 527Q1080 271 946 125T589 -21Q365 -21 230 125T95 527V928Q95 1183 229 1330T587 1477Q809 1477 944 1330T1080 928V527ZM789 958Q789 1098 736 1175T587 1252Q491 1252 439 1175T386 958V499Q386
356 439 280T589 203Q684 203 736 279T789 499V958Z" />
<glyph unicode="1" glyph-name="one" horiz-adv-x="1175" d="M796 0H505V1202H204V1425L796 1477V0Z" />
<glyph unicode="2" glyph-name="two" horiz-adv-x="1175" d="M1094 0H117V191L568 701Q669 820 711 902T754 1054Q754 1144 709 1198T574 1252Q479 1252 427 1183T375 1008H91L89 1014Q84 1208 217 1342T574 1477Q798 1477 922 1363T1046 1055Q1046 924 977 816T737
517L497 229L499 224H1094V0Z" />
<glyph unicode="3" glyph-name="three" horiz-adv-x="1175" d="M579 856Q683 856 733 910T784 1062Q784 1144 731 1198T583 1252Q503 1252 449 1203T394 1078H112L110 1084Q104 1255 242 1366T583 1477Q809 1477 942 1371T1075 1065Q1075 965 1018 882T860 750Q974
707 1036 620T1098 408Q1098 208 954 94T583 -21Q384 -21 235 87T91 390L93 396H377Q377 314 434 259T583 203Q683 203 745 262T807 411Q807 526 749 581T579 637H418V856H579Z" />
<glyph unicode="4" glyph-name="four" horiz-adv-x="1175" d="M955 542H1119V316H955V0H663V316H70L56 491L660 1456H955V542ZM321 542H663V1071L657 1072L627 1007L321 542Z" />
<glyph unicode="5" glyph-name="five" horiz-adv-x="1175" d="M139 642L223 1456H1035V1222H462L422 882Q463 912 525 931T660 953Q863 956 974 828T1086 467Q1086 253 965 116T595 -21Q394 -21 251 85T113 378L115 383L396 396Q396 305 451 254T595 203Q699 203
746 271T794 465Q794 591 742 665T588 740Q504 740 460 709T396 625L139 642Z" />
<glyph unicode="6" glyph-name="six" horiz-adv-x="1175" d="M669 1477Q754 1477 826 1462T970 1416L918 1202Q850 1225 796 1236T671 1248Q543 1248 465 1150T386 877V830Q444 887 524 918T704 950Q891 950 996 818T1101 472Q1101 253 965 116T610 -21Q382 -21
239 135T95 562V867Q95 1144 257 1310T669 1477ZM607 729Q528 729 473 704T386 633V555Q386 387 447 295T610 203Q701 203 755 279T809 472Q809 592 755 660T607 729Z" />
<glyph unicode="7" glyph-name="seven" horiz-adv-x="1175" d="M1095 1231Q848 942 759 711T670 180V0H378V180Q378 484 489 734T814 1231H71V1456H1095V1231Z" />
<glyph unicode="8" glyph-name="eight" horiz-adv-x="1175" d="M1056 1078Q1056 970 1000 887T846 756Q965 707 1035 616T1105 406Q1105 204 965 92T605 -21Q376 -21 229 91T82 406Q82 524 154 615T351 756Q248 803 190 886T131 1078Q131 1270 262 1373T603 1477Q804
1477 930 1374T1056 1078ZM813 420Q813 517 753 579T603 642Q505 642 440 580T375 420Q375 321 439 262T605 203Q695 203 754 262T813 420ZM765 1065Q765 1151 720 1201T603 1252Q521 1252 472 1203T423 1065Q423 976 473 922T605 867Q677 867 721 921T765 1065Z"
/>
<glyph unicode="9" glyph-name="nine" horiz-adv-x="1175" d="M532 203Q640 203 709 284T778 512V606Q729 543 662 511T518 479Q315 479 200 611T84 970Q84 1189 221 1333T571 1477Q791 1477 930 1329T1069 919V527Q1069 275 918 127T532 -21Q456 -21 376 -5T224
42L273 253Q336 227 396 215T532 203ZM567 693Q638 693 692 722T778 800V970Q778 1107 722 1179T572 1252Q484 1252 430 1171T376 970Q376 845 425 769T567 693Z" />
<glyph unicode=":" glyph-name="colon" horiz-adv-x="582" d="M436 0H144V256H436V0ZM436 876H144V1132H436V876Z" />
<glyph unicode=";" glyph-name="semicolon" horiz-adv-x="562" d="M437 876H145V1132H437V876ZM468 13L309 -302H114L184 22V250H468V13Z" />
<glyph unicode="&lt;" glyph-name="less" horiz-adv-x="1043" d="M339 550V544L916 341V69L54 436V663L916 1029V757L339 550Z" />
<glyph unicode="=" glyph-name="equal" horiz-adv-x="1181" d="M1032 763H136V992H1032V763ZM1032 332H136V561H1032V332Z" />
<glyph unicode="&gt;" glyph-name="greater" horiz-adv-x="1058" d="M705 539V545L119 751V1020L991 654V427L119 60V330L705 539Z" />
<glyph unicode="?" glyph-name="question" horiz-adv-x="1021" d="M324 414Q325 554 365 619T527 777Q598 835 640 902T683 1052Q683 1144 635 1196T496 1248Q422 1248 371 1204T318 1075H34L32 1081Q29 1273 158 1375T496 1477Q720 1477 847 1364T975 1055Q975
928 901 820T714 639Q653 592 634 545T615 414H324ZM617 0H323V250H617V0Z" />
<glyph unicode="@" glyph-name="at" horiz-adv-x="1817" d="M1730 513Q1721 295 1602 137T1246 -21Q1168 -21 1111 23T1030 146Q986 64 921 23T767 -18Q626 -18 551 101T495 416Q520 670 638 823T926 976Q1042 976 1112 950T1267 870L1264 866H1269L1218 293Q1211
198 1232 163T1289 128Q1404 128 1473 237T1551 513Q1567 866 1415 1064T943 1262Q640 1262 459 1049T263 478Q246 123 409 -82T878 -287Q963 -287 1053 -267T1209 -217L1247 -364Q1180 -406 1077 -429T874 -453Q478 -453 264 -204T66 478Q84 905 321 1161T947
1418Q1334 1418 1540 1176T1730 513ZM720 416Q710 289 738 224T831 158Q887 158 932 184T1014 280Q1014 284 1014 286T1015 293L1059 789Q1036 796 1013 800T965 804Q854 804 796 708T720 416Z" />
<glyph unicode="A" glyph-name="A" horiz-adv-x="1303" d="M893 314H421L323 0H18L509 1456H808L1297 0H992L893 314ZM493 543H822L661 1056H655L493 543Z" />
<glyph unicode="B" glyph-name="B" horiz-adv-x="1305" d="M134 0V1456H611Q868 1456 1012 1356T1156 1057Q1156 957 1104 878T952 759Q1088 734 1157 641T1226 424Q1226 215 1088 108T697 0H134ZM426 644V224H697Q813 224 874 274T935 424Q935 530 875 587T694
644H426ZM426 846H621Q738 846 801 894T864 1034Q864 1135 801 1183T611 1231H426V846Z" />
<glyph unicode="C" glyph-name="C" horiz-adv-x="1303" d="M1226 482L1228 476Q1232 243 1086 111T683 -21Q421 -21 260 147T99 583V872Q99 1138 256 1307T668 1477Q934 1477 1084 1347T1230 981L1228 975H944Q944 1115 877 1183T668 1252Q537 1252 464 1147T390
874V583Q390 415 467 309T683 203Q814 203 878 271T943 482H1226Z" />
<glyph unicode="D" glyph-name="D" horiz-adv-x="1355" d="M134 0V1456H642Q909 1456 1082 1286T1255 848V607Q1255 339 1082 170T642 0H134ZM426 1231V224H642Q786 224 874 331T962 607V850Q962 1017 874 1124T642 1231H426Z" />
<glyph unicode="E" glyph-name="E" horiz-adv-x="1139" d="M966 640H426V224H1068V0H134V1456H1066V1231H426V865H966V640Z" />
<glyph unicode="F" glyph-name="F" horiz-adv-x="1139" d="M985 605H426V0H134V1456H1087V1231H426V830H985V605Z" />
<glyph unicode="G" glyph-name="G" horiz-adv-x="1364" d="M1250 199Q1182 110 1047 45T699 -21Q435 -21 267 145T99 576V880Q99 1144 262 1310T681 1477Q948 1477 1090 1351T1227 1013L1225 1007H950Q950 1123 883 1187T688 1252Q554 1252 472 1149T390 882V576Q390
411 474 307T699 203Q803 203 863 224T957 277V559H677V761H1250V199Z" />
<glyph unicode="H" glyph-name="H" horiz-adv-x="1445" d="M1311 0H1019V605H426V0H134V1456H426V830H1019V1456H1311V0Z" />
<glyph unicode="I" glyph-name="I" horiz-adv-x="601" d="M446 0H154V1456H446V0Z" />
<glyph unicode="J" glyph-name="J" horiz-adv-x="1137" d="M714 1456H1005V451Q1005 235 873 107T532 -21Q301 -21 166 93T36 424L38 430H322Q322 314 379 259T532 203Q612 203 663 269T714 451V1456Z" />
<glyph unicode="K" glyph-name="K" horiz-adv-x="1305" d="M533 608H426V0H134V1456H426V861H508L907 1456H1268L764 779L1307 0H935L533 608Z" />
<glyph unicode="L" glyph-name="L" horiz-adv-x="1138" d="M426 224H1078V0H134V1456H426V224Z" />
<glyph unicode="M" glyph-name="M" horiz-adv-x="1782" d="M887 383H893L1267 1456H1648V0H1356V994L1350 995L990 0H792L432 997L426 996V0H134V1456H517L887 383Z" />
<glyph unicode="N" glyph-name="N" horiz-adv-x="1445" d="M1311 0H1019L432 982L426 981V0H134V1456H426L1013 475L1019 476V1456H1311V0Z" />
<glyph unicode="O" glyph-name="O" horiz-adv-x="1409" d="M1312 597Q1312 328 1143 154T703 -21Q433 -21 265 154T97 597V859Q97 1126 264 1301T701 1477Q972 1477 1142 1302T1312 859V597ZM1021 861Q1021 1031 936 1140T701 1249Q553 1249 471 1140T388 861V597Q388
424 471 315T703 206Q853 206 937 315T1021 597V861Z" />
<glyph unicode="P" glyph-name="P" horiz-adv-x="1305" d="M426 528V0H134V1456H691Q942 1456 1086 1328T1230 991Q1230 782 1086 655T691 528H426ZM426 753H691Q813 753 876 819T939 989Q939 1094 877 1162T691 1231H426V753Z" />
<glyph unicode="Q" glyph-name="Q" horiz-adv-x="1441" d="M1312 597Q1312 487 1282 390T1195 215L1412 -2L1221 -158L1008 52Q941 16 865 -2T703 -21Q433 -21 265 154T97 597V859Q97 1126 264 1301T701 1477Q972 1477 1142 1302T1312 859V597ZM1021 861Q1021
1031 936 1140T701 1249Q553 1249 471 1140T388 861V597Q388 424 471 315T703 206Q853 206 937 315T1021 597V861Z" />
<glyph unicode="R" glyph-name="R" horiz-adv-x="1305" d="M426 582V0H134V1456H638Q887 1456 1027 1343T1168 1026Q1168 914 1109 833T935 701Q1064 663 1120 574T1177 354V247Q1177 186 1193 120T1250 21V0H949Q909 32 898 106T886 249V352Q886 461 827 521T658
582H426ZM426 807H633Q756 807 816 859T876 1013Q876 1113 816 1172T638 1231H426V807Z" />
<glyph unicode="S" glyph-name="S" horiz-adv-x="1266" d="M893 380Q893 464 835 515T629 611Q377 687 247 790T116 1071Q116 1250 263 1363T638 1477Q880 1477 1027 1355T1170 1035L1168 1029H885Q885 1138 819 1196T634 1255Q526 1255 467 1203T408 1070Q408
996 472 949T693 848Q933 780 1059 671T1185 382Q1185 195 1039 87T653 -21Q418 -21 250 96T86 445L88 451H371Q371 322 447 261T653 200Q770 200 831 249T893 380Z" />
<glyph unicode="T" glyph-name="T" horiz-adv-x="1175" d="M1149 1231H733V0H441V1231H31V1456H1149V1231Z" />
<glyph unicode="U" glyph-name="U" horiz-adv-x="1407" d="M1288 1456V503Q1288 257 1125 118T702 -21Q443 -21 282 118T120 503V1456H413V503Q413 357 491 280T702 203Q837 203 916 280T995 503V1456H1288Z" />
<glyph unicode="V" glyph-name="V" horiz-adv-x="1303" d="M630 395L648 315H654L671 392L988 1456H1296L801 0H501L7 1456H315L630 395Z" />
<glyph unicode="W" glyph-name="W" horiz-adv-x="1804" d="M1283 468H1289L1482 1456H1783L1443 0H1172L904 959H898L631 0H360L20 1456H321L515 469H521L783 1456H1019L1283 468Z" />
<glyph unicode="X" glyph-name="X" horiz-adv-x="1303" d="M649 940L922 1456H1262L830 734L1287 0H934L653 525L372 0H31L474 734L42 1456H380L649 940Z" />
<glyph unicode="Y" glyph-name="Y" horiz-adv-x="1303" d="M648 785H654L972 1456H1292L793 512V0H501V527L10 1456H330L648 785Z" />
<glyph unicode="Z" glyph-name="Z" horiz-adv-x="1163" d="M421 224H1089V0H77V152L725 1231H78V1456H1072V1310L421 224Z" />
<glyph unicode="[" glyph-name="bracketleft" horiz-adv-x="570" d="M553 1475H412V-120H553V-336H119V1691H553V1475Z" />
<glyph unicode="\" glyph-name="backslash" horiz-adv-x="863" d="M2 1456H291L899 -125H610L2 1456Z" />
<glyph unicode="]" glyph-name="bracketright" horiz-adv-x="570" d="M13 1691H447V-336H13V-120H155V1475H13V1691Z" />
<glyph unicode="^" glyph-name="asciicircum" horiz-adv-x="896" d="M275 729H44L343 1456H555L854 729H623L458 1142L450 1176H444L437 1142L275 729Z" />
<glyph unicode="_" glyph-name="underscore" horiz-adv-x="914" d="M911 -219H1V0H911V-219Z" />
<glyph unicode="`" glyph-name="grave" horiz-adv-x="678" d="M577 1252H326L54 1512L56 1518H381L577 1252Z" />
<glyph unicode="a" glyph-name="a" horiz-adv-x="1100" d="M750 0Q734 37 723 78T706 162Q661 83 587 31T411 -21Q241 -21 149 66T57 305Q57 464 179 551T537 639H701V725Q701 803 660 846T538 889Q467 889 429 855T390 760H109L107 766Q100 903 226 1002T557
1102Q752 1102 872 1004T993 723V276Q993 200 1004 133T1041 0H750ZM483 195Q559 195 619 233T701 321V474H537Q444 474 397 428T349 315Q349 260 384 228T483 195Z" />
<glyph unicode="b" glyph-name="b" horiz-adv-x="1156" d="M1088 511Q1088 269 980 124T668 -21Q573 -21 503 19T383 136L359 0H112V1560H403V967Q450 1032 515 1067T666 1102Q872 1102 980 947T1088 532V511ZM797 532Q797 690 751 782T592 875Q524 875 477 847T403
765V307Q430 258 477 232T594 206Q707 206 752 285T797 511V532Z" />
<glyph unicode="c" glyph-name="c" horiz-adv-x="1056" d="M564 203Q640 203 685 248T730 370H996L998 364Q1002 200 876 90T564 -21Q324 -21 193 132T62 525V555Q62 793 192 947T562 1102Q760 1102 881 988T998 688L996 682H730Q730 766 686 821T562 877Q449
877 402 787T354 555V525Q354 381 401 292T564 203Z" />
<glyph unicode="d" glyph-name="d" horiz-adv-x="1156" d="M67 532Q67 788 177 945T489 1102Q570 1102 635 1067T749 967V1560H1042V0H793L768 133Q717 58 647 19T487 -21Q288 -21 178 125T67 511V532ZM358 511Q358 369 406 288T562 206Q625 206 672 231T749 306V767Q719
818 673 846T564 875Q457 875 408 780T358 532V511Z" />
<glyph unicode="e" glyph-name="e" horiz-adv-x="1071" d="M581 -21Q339 -21 203 127T67 510V550Q67 793 199 948T562 1102Q780 1102 896 969T1013 609V458H368L365 452Q372 341 432 272T612 203Q710 203 778 223T920 284L999 104Q934 51 823 15T581 -21ZM562
877Q474 877 427 817T369 656L371 651H727V673Q727 768 688 822T562 877Z" />
<glyph unicode="f" glyph-name="f" horiz-adv-x="714" d="M188 0V877H27V1082H188V1202Q188 1384 293 1482T588 1581Q625 1581 663 1576T748 1560L723 1343Q699 1347 677 1350T624 1353Q553 1353 517 1314T480 1202V1082H688V877H480V0H188Z" />
<glyph unicode="g" glyph-name="g" horiz-adv-x="1156" d="M69 532Q69 788 180 945T492 1102Q583 1102 652 1061T770 944L793 1082H1044V5Q1044 -206 906 -321T521 -437Q439 -437 347 -415T177 -353L226 -135Q293 -167 364 -183T519 -200Q639 -200 695 -150T752
6V104Q704 43 639 11T490 -21Q291 -21 180 125T69 511V532ZM361 511Q361 369 408 288T564 206Q631 206 677 230T752 302V771Q724 821 678 848T566 875Q459 875 410 780T361 532V511Z" />
<glyph unicode="h" glyph-name="h" horiz-adv-x="1156" d="M397 945Q448 1019 522 1060T686 1102Q855 1102 951 990T1048 642V0H756V644Q756 770 716 822T594 875Q527 875 478 854T397 792V0H105V1560H397V945Z" />
<glyph unicode="i" glyph-name="i" horiz-adv-x="547" d="M419 0H127V1082H419V0ZM419 1341H127V1560H419V1341Z" />
<glyph unicode="j" glyph-name="j" horiz-adv-x="543" d="M427 1082V-40Q427 -230 326 -333T45 -437Q5 -437 -28 -433T-98 -420L-84 -197Q-61 -203 -38 -206T11 -209Q70 -209 102 -168T134 -40V1082H427ZM421 1343H128V1560H421V1343Z" />
<glyph unicode="k" glyph-name="k" horiz-adv-x="1097" d="M478 453H404V0H112V1560H404V675H469L728 1082H1066L714 589L1114 0H778L478 453Z" />
<glyph unicode="l" glyph-name="l" horiz-adv-x="547" d="M419 0H127V1560H419V0Z" />
<glyph unicode="m" glyph-name="m" horiz-adv-x="1772" d="M383 1082L395 939Q447 1017 525 1059T707 1102Q811 1102 885 1056T997 917Q1047 1004 1127 1053T1315 1102Q1475 1102 1567 989T1660 642V0H1368V643Q1368 773 1328 824T1209 875Q1147 875 1102 848T1029
771Q1029 752 1030 739T1031 711V0H740V643Q740 770 700 822T580 875Q521 875 477 853T403 789V0H112V1082H383Z" />
<glyph unicode="n" glyph-name="n" horiz-adv-x="1156" d="M379 1082L392 927Q446 1010 525 1056T702 1102Q866 1102 958 997T1050 663V0H757V662Q757 778 717 826T595 875Q530 875 481 851T399 783V0H107V1082H379Z" />
<glyph unicode="o" glyph-name="o" horiz-adv-x="1156" d="M67 551Q67 793 202 947T576 1102Q816 1102 952 948T1088 551V530Q1088 286 953 133T578 -21Q338 -21 203 132T67 530V551ZM358 530Q358 382 410 293T578 203Q691 203 743 293T796 530V551Q796 695 743
786T576 877Q463 877 411 786T358 551V530Z" />
<glyph unicode="p" glyph-name="p" horiz-adv-x="1156" d="M1088 511Q1088 271 977 125T667 -21Q582 -21 516 10T403 103V-416H112V1082H375L392 954Q440 1025 507 1063T665 1102Q866 1102 977 945T1088 532V511ZM796 532Q796 685 745 780T589 875Q523 875 477
848T403 771V297Q430 251 476 227T591 203Q697 203 746 286T796 511V532Z" />
<glyph unicode="q" glyph-name="q" horiz-adv-x="1156" d="M67 532Q67 788 177 945T489 1102Q579 1102 647 1063T764 949L791 1082H1039V-416H747V101Q699 41 635 10T487 -21Q288 -21 178 125T67 511V532ZM358 511Q358 369 406 286T562 203Q626 203 672 227T747
297V777Q718 825 673 851T564 877Q457 877 408 781T358 532V511Z" />
<glyph unicode="r" glyph-name="r" horiz-adv-x="721" d="M681 831L574 834Q509 834 467 807T403 731V0H112V1082H383L396 922Q434 1007 494 1054T634 1102Q656 1102 674 1099T712 1090L681 831Z" />
<glyph unicode="s" glyph-name="s" horiz-adv-x="1056" d="M697 300Q697 348 651 382T478 443Q288 481 190 558T91 767Q91 906 209 1004T523 1102Q728 1102 851 1004T970 760L968 754H686Q686 819 644 860T523 901Q453 901 412 866T371 780Q371 730 413 699T586
642Q785 602 882 525T980 311Q980 165 855 72T525 -21Q309 -21 184 88T64 338L66 344H333Q336 257 390 218T531 179Q612 179 654 211T697 300Z" />
<glyph unicode="t" glyph-name="t" horiz-adv-x="713" d="M462 1347V1082H645V877H462V326Q462 263 488 236T558 209Q581 209 598 211T637 220L661 9Q617 -6 576 -13T485 -21Q334 -21 253 62T171 325V877H13V1082H171V1347H462Z" />
<glyph unicode="u" glyph-name="u" horiz-adv-x="1156" d="M775 160Q725 73 648 26T469 -21Q298 -21 202 95T105 455V1082H396V453Q396 311 434 259T554 206Q624 206 674 228T756 295V1082H1048V0H806L775 160Z" />
<glyph unicode="v" glyph-name="v" horiz-adv-x="1046" d="M503 403L522 303H528L548 403L726 1082H1031L663 0H384L16 1082H321L503 403Z" />
<glyph unicode="w" glyph-name="w" horiz-adv-x="1507" d="M1053 402H1059L1190 1082H1474L1199 0H955L754 624H748L547 0H304L29 1082H313L446 405H452L654 1082H849L1053 402Z" />
<glyph unicode="x" glyph-name="x" horiz-adv-x="1046" d="M519 738H525L691 1082H1021L695 547L1032 0H703L526 359L349 0H19L356 547L29 1082H357L519 738Z" />
<glyph unicode="y" glyph-name="y" horiz-adv-x="1046" d="M502 454L514 394H520L727 1082H1041L602 -162Q556 -278 477 -357T240 -437Q203 -437 172 -431T95 -414L129 -201Q142 -203 157 -205T184 -207Q256 -207 295 -172T355 -83L389 1L5 1082H319L502 454Z" />
<glyph unicode="z" glyph-name="z" horiz-adv-x="1046" d="M438 224H974V0H75V172L590 856H91V1082H957V915L438 224Z" />
<glyph unicode="{" glyph-name="braceleft" horiz-adv-x="676" d="M585 -360Q390 -305 308 -185T225 106V309Q225 408 182 463T48 518V719Q138 719 181 773T225 929V1132Q225 1303 307 1422T585 1597L641 1440Q556 1409 521 1330T486 1132V929Q486 825 442 745T307
619Q397 572 441 492T486 309V106Q486 -12 521 -91T641 -202L585 -360Z" />
<glyph unicode="|" glyph-name="bar" horiz-adv-x="519" d="M374 -270H143V1456H374V-270Z" />
<glyph unicode="}" glyph-name="braceright" horiz-adv-x="676" d="M34 -202Q119 -171 154 -92T189 106V309Q189 413 235 493T375 618Q281 663 235 743T189 929V1132Q189 1250 154 1329T34 1440L90 1597Q284 1542 367 1423T450 1132V929Q450 828 493 774T628 719V518Q536
518 493 463T450 309V106Q450 -65 367 -185T90 -360L34 -202Z" />
<glyph unicode="~" glyph-name="asciitilde" horiz-adv-x="1327" d="M1220 758Q1220 597 1132 488T908 378Q823 378 751 409T601 511Q549 555 512 575T430 595Q378 595 343 544T307 422L105 448Q105 610 191 717T415 825Q498 825 573 792T725 692Q774 647 811
628T893 608Q943 608 980 660T1017 785L1220 758Z" />
</font>
</defs>
</svg>
